<svg width="160" height="41" viewBox="0 0 160 41" fill="none" xmlns="http://www.w3.org/2000/svg">
<g clip-path="url(#clip0)">
<path d="M15.9102 0V14C19.1291 14.0027 22.2175 12.7279 24.4974 10.4555C26.7772 8.18313 28.0622 5.09891 28.0702 1.88V0H15.9102Z" fill="#FFCE34"/>
<path d="M28.0699 28.78V14.78C24.8519 14.7773 21.7645 16.0524 19.4862 18.3251C17.208 20.5977 15.9252 23.682 15.9199 26.9V28.78H28.0699V28.78Z" fill="#FFCE34"/>
<path d="M11.7599 28.78C8.43749 28.1096 5.4494 26.3103 3.30281 23.6873C1.15623 21.0643 -0.0166016 17.7794 -0.0166016 14.39C-0.0166016 11.0006 1.15623 7.71568 3.30281 5.09271C5.4494 2.46974 8.43749 0.670369 11.7599 0V28.78Z" fill="#F57F29"/>
<path d="M48.7503 26C44.7503 26 41.5403 24.77 39.2403 22.35C38.2095 21.2715 37.4022 19.9996 36.865 18.6077C36.3278 17.2159 36.0713 15.7315 36.1103 14.24C36.059 11.0261 37.2771 7.92153 39.5003 5.60002C40.8231 4.25563 42.414 3.20469 44.1696 2.51554C45.9252 1.82639 47.8062 1.51445 49.6903 1.60002C52.0662 1.55505 54.4194 2.06885 56.5603 3.10002C56.6024 3.12193 56.6377 3.15494 56.6624 3.19549C56.6871 3.23603 56.7002 3.28256 56.7003 3.33002V8.33002C56.6991 8.38941 56.6776 8.44661 56.6394 8.49209C56.6012 8.53758 56.5486 8.56861 56.4903 8.58002H56.4403C56.3904 8.57937 56.3418 8.56379 56.3008 8.53527C56.2598 8.50675 56.2283 8.46661 56.2103 8.42002C55.0003 5.38002 52.6403 3.93002 49.0003 3.93002C47.7205 3.87886 46.446 4.12282 45.2755 4.64303C44.1051 5.16324 43.07 5.94575 42.2503 6.93002C40.7059 8.80292 39.8955 11.1736 39.9703 13.6C39.9066 16.09 40.7447 18.5191 42.3303 20.44C43.1931 21.4605 44.2778 22.2703 45.5013 22.8075C46.7249 23.3448 48.0551 23.5953 49.3903 23.54C50.8191 23.5222 52.2279 23.2019 53.5241 22.6004C54.8202 21.9989 55.9743 21.1297 56.9103 20.05C56.9539 20.0182 57.0063 20.0007 57.0603 20H57.1503C57.1985 20.0186 57.2398 20.0516 57.2684 20.0946C57.2971 20.1376 57.3117 20.1884 57.3103 20.24V22.47C57.3109 22.5368 57.2859 22.6012 57.2403 22.65C56.1348 23.7666 54.8091 24.641 53.3476 25.2177C51.886 25.7945 50.3204 26.0609 48.7503 26" fill="#FFCE34"/>
<path d="M96.6999 3.90001C95.1675 3.84749 93.6404 4.1057 92.2105 4.65909C90.7807 5.21248 89.4776 6.0496 88.3799 7.12001C87.3181 8.17105 86.4828 9.42843 85.9256 10.8146C85.3683 12.2008 85.1009 13.6865 85.1399 15.18C85.0876 16.6108 85.3266 18.0373 85.8423 19.373C86.358 20.7086 87.1396 21.9256 88.1399 22.95C89.1867 23.974 90.4321 24.7728 91.7994 25.2974C93.1666 25.8219 94.6267 26.061 96.0899 26C97.6352 26.0535 99.1751 25.788 100.613 25.2203C102.052 24.6525 103.358 23.7946 104.45 22.7C105.487 21.6479 106.299 20.3966 106.839 19.0216C107.379 17.6466 107.634 16.1765 107.59 14.7C107.65 13.258 107.409 11.8192 106.882 10.4756C106.355 9.13206 105.553 7.91319 104.528 6.89686C103.503 5.88054 102.278 5.0891 100.93 4.57309C99.5821 4.05708 98.1413 3.82784 96.6999 3.90001V3.90001ZM104.18 15.43C104.273 17.5986 103.533 19.7206 102.11 21.36C101.434 22.0977 100.608 22.6807 99.6859 23.069C98.7642 23.4574 97.7695 23.6419 96.7699 23.61C95.6538 23.6442 94.5443 23.4275 93.5231 22.9758C92.502 22.5241 91.5953 21.8489 90.8699 21C89.3114 19.1087 88.5066 16.7085 88.6099 14.26C88.5014 12.1378 89.2181 10.0558 90.6099 8.45001C91.3014 7.72527 92.1405 7.15739 93.0703 6.78476C94.0002 6.41212 94.9992 6.24341 95.9999 6.29001C97.1142 6.24754 98.224 6.45443 99.2482 6.8956C100.272 7.33677 101.185 8.00107 101.92 8.84001C103.455 10.6809 104.253 13.0251 104.16 15.42" fill="#FFCE34"/>
<path d="M115.85 6.6C115.846 6.5434 115.846 6.4866 115.85 6.43C115.904 6.10229 116.057 5.79871 116.287 5.55943C116.517 5.32016 116.815 5.15646 117.14 5.09V5.09C117.22 5.06904 117.291 5.02037 117.338 4.95263C117.386 4.88489 117.408 4.80246 117.4 4.72C117.391 4.63331 117.35 4.55308 117.286 4.49423C117.221 4.43537 117.138 4.40189 117.05 4.4H111.11C111.018 4.39072 110.925 4.41869 110.853 4.47777C110.78 4.53684 110.735 4.62218 110.725 4.715C110.716 4.80783 110.744 4.90054 110.803 4.97274C110.862 5.04494 110.948 5.09072 111.04 5.1V5.1C111.411 5.17374 111.745 5.37327 111.985 5.66482C112.226 5.95636 112.358 6.32204 112.36 6.7V23.25C112.358 23.628 112.226 23.9936 111.985 24.2852C111.745 24.5767 111.411 24.7763 111.04 24.85V24.85C111.012 24.8496 110.983 24.8557 110.957 24.8678C110.931 24.8799 110.908 24.8978 110.89 24.92C110.856 24.9576 110.829 25.0017 110.812 25.0498C110.795 25.0979 110.787 25.149 110.79 25.2C110.798 25.2885 110.838 25.3711 110.902 25.432C110.967 25.493 111.052 25.5278 111.14 25.53H117.06C117.153 25.53 117.242 25.4931 117.308 25.4275C117.374 25.3619 117.41 25.2728 117.41 25.18C117.416 25.105 117.394 25.0305 117.348 24.9713C117.301 24.912 117.235 24.8723 117.16 24.86V24.86C116.786 24.7904 116.448 24.5926 116.203 24.3007C115.959 24.0087 115.823 23.6408 115.82 23.26V6.69C115.82 6.69 115.82 6.63 115.82 6.6" fill="#FFCE34"/>
<path d="M139.67 20.37C139.604 20.3433 139.531 20.3377 139.461 20.3537C139.391 20.3698 139.328 20.4069 139.28 20.46C138.455 21.412 137.437 22.1787 136.295 22.7095C135.152 23.2404 133.91 23.5234 132.65 23.54C131.475 23.5886 130.305 23.3678 129.229 22.8947C128.152 22.4215 127.198 21.7084 126.44 20.81C125.051 19.1233 124.313 16.9945 124.36 14.81C124.294 12.6727 125.005 10.584 126.36 8.92999C127.082 8.06578 127.994 7.37915 129.024 6.92313C130.054 6.46712 131.175 6.25392 132.3 6.29999C135.52 6.29999 137.6 7.56999 138.66 10.19C138.689 10.2665 138.744 10.3303 138.815 10.3705C138.886 10.4107 138.969 10.4247 139.05 10.41C139.131 10.3939 139.204 10.3503 139.257 10.2865C139.31 10.2228 139.339 10.1428 139.34 10.06V5.56999C139.34 5.50441 139.323 5.43993 139.289 5.38354C139.256 5.32714 139.208 5.28096 139.15 5.24999C137.232 4.32932 135.127 3.86715 133 3.89999C131.297 3.82679 129.597 4.11309 128.012 4.74024C126.427 5.3674 124.992 6.32135 123.8 7.53999C122.796 8.58357 122.008 9.81509 121.481 11.1639C120.954 12.5127 120.699 13.9523 120.73 15.4C120.695 16.748 120.927 18.0896 121.413 19.3475C121.899 20.6055 122.628 21.755 123.56 22.73C124.682 23.8498 126.026 24.7221 127.505 25.2905C128.985 25.8589 130.567 26.1108 132.15 26.03C133.575 26.0779 134.994 25.8278 136.316 25.2957C137.639 24.7636 138.835 23.9612 139.83 22.94C139.893 22.8758 139.929 22.7899 139.93 22.7V20.7C139.931 20.6292 139.91 20.5597 139.871 20.5008C139.832 20.4419 139.776 20.3963 139.71 20.37" fill="#FFCE34"/>
<path d="M159.72 20.15C159.637 20.1283 159.55 20.1364 159.473 20.1731C159.396 20.2097 159.335 20.2724 159.3 20.35L159.23 20.49C158.928 21.3065 158.382 22.0103 157.666 22.5058C156.951 23.0014 156.1 23.2647 155.23 23.26H148.4V15.84H154.73C156.05 15.84 156.73 16.22 156.88 16.99C156.892 17.0739 156.934 17.1506 156.998 17.2058C157.063 17.2609 157.145 17.2909 157.23 17.29V17.29C157.317 17.2825 157.399 17.2423 157.458 17.1775C157.517 17.1126 157.55 17.0279 157.55 16.94V12.54C157.559 12.4472 157.531 12.3545 157.472 12.2823C157.413 12.2101 157.327 12.1643 157.235 12.155C157.142 12.1457 157.049 12.1737 156.977 12.2328C156.905 12.2918 156.859 12.3772 156.85 12.47C156.69 13.25 155.97 13.63 154.66 13.63H148.36V6.41H155.5C156.187 6.41721 156.852 6.66058 157.382 7.09933C157.911 7.53808 158.274 8.14556 158.41 8.82V8.82C158.429 8.89695 158.472 8.96569 158.533 9.0161C158.595 9.06652 158.67 9.09593 158.75 9.1V9.1C158.835 9.09014 158.914 9.04896 158.972 8.98436C159.029 8.91976 159.06 8.8363 159.06 8.75V4.75C159.06 4.65718 159.023 4.56815 158.957 4.50251C158.891 4.43688 158.802 4.4 158.71 4.4H143.6C143.507 4.39337 143.415 4.42389 143.345 4.48484C143.274 4.54579 143.231 4.63218 143.225 4.725C143.218 4.81783 143.248 4.90948 143.309 4.97981C143.37 5.05014 143.457 5.09337 143.55 5.1V5.1C143.946 5.14618 144.311 5.33511 144.578 5.63145C144.845 5.92779 144.995 6.31122 145 6.71V23.22C144.997 23.5907 144.869 23.9497 144.637 24.2384C144.405 24.5272 144.081 24.7286 143.72 24.81H143.65C143.557 24.8166 143.47 24.8599 143.409 24.9302C143.348 25.0005 143.318 25.0922 143.325 25.185C143.331 25.2778 143.374 25.3642 143.445 25.4252C143.515 25.4861 143.607 25.5166 143.7 25.51H158.85C158.934 25.5088 159.015 25.4782 159.079 25.4234C159.143 25.3686 159.185 25.2931 159.2 25.21L160 20.55C160.013 20.4644 159.995 20.3768 159.949 20.3034C159.903 20.2299 159.832 20.1754 159.75 20.15" fill="#FFCE34"/>
<path d="M80.7397 6.69002C80.7387 6.32034 80.8625 5.96116 81.0912 5.67074C81.32 5.38031 81.6401 5.17567 81.9997 5.09002V5.09002C82.0817 5.07108 82.154 5.02326 82.2036 4.95532C82.2532 4.88737 82.2767 4.80384 82.2697 4.72002C82.2657 4.64342 82.2374 4.5701 82.1888 4.51074C82.1402 4.45138 82.074 4.40909 81.9997 4.39002H75.9997C75.9151 4.39296 75.8345 4.42644 75.7727 4.48425C75.711 4.54207 75.6722 4.6203 75.6637 4.70448C75.6551 4.78865 75.6774 4.87307 75.7263 4.94212C75.7752 5.01116 75.8475 5.06015 75.9297 5.08002V5.08002C76.2966 5.15634 76.6257 5.35751 76.8609 5.64926C77.0961 5.941 77.2229 6.30527 77.2197 6.68002V13.61H65.6897V6.77002V6.69002C65.693 6.31396 65.8247 5.95032 66.063 5.65934C66.3012 5.36836 66.6317 5.16749 66.9997 5.09002C67.0771 5.06913 67.1447 5.02155 67.1904 4.95567C67.2362 4.8898 67.2572 4.80987 67.2497 4.73002C67.2507 4.65386 67.2268 4.57946 67.1817 4.5181C67.1366 4.45674 67.0727 4.41177 66.9997 4.39002H60.9997C60.9102 4.38987 60.8241 4.42399 60.759 4.48536C60.6939 4.54673 60.6548 4.6307 60.6497 4.72002C60.6427 4.80122 60.6651 4.88225 60.7128 4.94833C60.7605 5.0144 60.8304 5.06114 60.9097 5.08002H61.0597C61.3668 5.16505 61.6423 5.33825 61.852 5.57819C62.0617 5.81813 62.1965 6.11428 62.2397 6.43002C62.2397 6.48335 62.2397 6.53668 62.2397 6.59002C62.2397 6.59002 62.2397 6.59002 62.2397 6.65002V23.11V23.21C62.2396 23.5753 62.1175 23.9301 61.8929 24.2181C61.6683 24.5061 61.3539 24.7109 60.9997 24.8V24.8L60.8697 24.86C60.8023 24.8869 60.7449 24.9341 60.7055 24.995C60.6661 25.0559 60.6466 25.1275 60.6497 25.2C60.6571 25.2885 60.6969 25.3711 60.7615 25.4321C60.8261 25.493 60.9109 25.5279 60.9997 25.53H66.9997C67.0892 25.5302 67.1753 25.496 67.2404 25.4347C67.3055 25.3733 67.3446 25.2893 67.3497 25.2C67.3549 25.1259 67.3364 25.052 67.2969 24.9891C67.2573 24.9261 67.1988 24.8774 67.1297 24.85H66.9997C66.6418 24.7648 66.3229 24.5616 66.0943 24.2732C65.8658 23.9848 65.7409 23.628 65.7397 23.26V15.9H77.2697C77.2697 15.9 77.2697 22.9 77.2697 23.04C77.2896 23.2895 77.2624 23.5405 77.1897 23.78C77.0923 24.0285 76.9357 24.2495 76.7336 24.4237C76.5315 24.598 76.2898 24.7203 76.0297 24.78L75.8897 24.84C75.8156 24.8728 75.7552 24.9302 75.7187 25.0025C75.6823 25.0748 75.672 25.1575 75.6897 25.2366C75.7074 25.3156 75.7519 25.3861 75.8158 25.4359C75.8796 25.4858 75.9587 25.512 76.0397 25.51H82.0397C82.1207 25.512 82.1998 25.4858 82.2636 25.4359C82.3275 25.3861 82.372 25.3156 82.3897 25.2366C82.4074 25.1575 82.3971 25.0748 82.3607 25.0025C82.3242 24.9302 82.2638 24.8728 82.1897 24.84L81.9997 24.8C81.6409 24.7164 81.321 24.5137 81.0922 24.2249C80.8634 23.9362 80.7391 23.5784 80.7397 23.21V6.69002Z" fill="#FFCE34"/>
<path d="M71.1703 37.58V40.33H70.0303V33.81H71.1703V36.52H74.2803V33.81H75.4203V40.33H74.2803V37.58H71.1703Z" fill="#F57F29"/>
<path d="M83.6198 40.44C82.9541 40.438 82.3039 40.2389 81.7513 39.8679C81.1986 39.4968 80.7682 38.9704 80.5144 38.355C80.2606 37.7397 80.1947 37.0629 80.325 36.4101C80.4554 35.7573 80.7761 35.1578 81.2468 34.6871C81.7175 34.2164 82.3171 33.8956 82.9699 33.7653C83.6226 33.6349 84.2994 33.7008 84.9148 33.9546C85.5302 34.2085 86.0566 34.6388 86.4276 35.1915C86.7987 35.7442 86.9978 36.3943 86.9998 37.06C87.0095 37.5099 86.9274 37.9572 86.7585 38.3743C86.5896 38.7914 86.3373 39.1697 86.0172 39.4861C85.6971 39.8025 85.3159 40.0502 84.8968 40.2142C84.4777 40.3782 84.0296 40.4551 83.5798 40.44H83.6198ZM83.5798 34.75C83.2818 34.751 82.9871 34.8123 82.7134 34.9302C82.4397 35.0481 82.1927 35.2201 81.9871 35.4358C81.7816 35.6516 81.6219 35.9068 81.5175 36.1859C81.4131 36.465 81.3663 36.7623 81.3798 37.06C81.3677 37.36 81.416 37.6593 81.5219 37.9402C81.6278 38.2211 81.7891 38.4779 81.9962 38.6952C82.2033 38.9126 82.452 39.0861 82.7274 39.2055C83.0029 39.3248 83.2995 39.3876 83.5998 39.39C83.8977 39.389 84.1924 39.3277 84.4661 39.2098C84.7398 39.0919 84.9869 38.9199 85.1924 38.7041C85.3979 38.4884 85.5576 38.2332 85.662 37.9541C85.7664 37.675 85.8132 37.3777 85.7998 37.08C85.8118 36.78 85.7635 36.4807 85.6576 36.1998C85.5517 35.9189 85.3904 35.6621 85.1833 35.4447C84.9762 35.2274 84.7275 35.0539 84.4521 34.9345C84.1766 34.8152 83.88 34.7524 83.5798 34.75" fill="#F57F29"/>
<path d="M94.1096 40.33H92.9596V34.87H90.8896V33.81H96.1796V34.87H94.1096V40.33Z" fill="#F57F29"/>
<path d="M105.94 34.84H102.26V36.53H105.53V37.55H102.26V39.3H105.99V40.33H101.11V33.81H105.94V34.84Z" fill="#F57F29"/>
<path d="M111.71 33.81H112.85V39.29H116.28V40.33H111.71V33.81Z" fill="#F57F29"/>
<path d="M122.72 36.55C124.1 36.89 124.81 37.38 124.81 38.47C124.81 39.56 123.81 40.47 122.48 40.47C121.48 40.4884 120.51 40.1316 119.76 39.47L120.45 38.65C121.002 39.1873 121.739 39.4917 122.51 39.5C122.64 39.5214 122.773 39.5169 122.901 39.4867C123.029 39.4565 123.15 39.4012 123.257 39.3241C123.364 39.247 123.455 39.1495 123.524 39.0372C123.593 38.925 123.639 38.8002 123.66 38.67C123.66 38.2 123.4 37.94 122.19 37.67C120.8 37.33 120.02 36.92 120.02 35.67C120.032 35.3963 120.1 35.1279 120.22 34.8816C120.34 34.6353 120.509 34.4163 120.717 34.2382C120.926 34.06 121.168 33.9265 121.43 33.846C121.692 33.7654 121.967 33.7396 122.24 33.77C123.099 33.7528 123.936 34.0437 124.6 34.59L124 35.4C123.498 34.9915 122.877 34.7565 122.23 34.73C122.108 34.7072 121.984 34.7096 121.863 34.7371C121.743 34.7645 121.63 34.8165 121.53 34.8896C121.431 34.9628 121.348 35.0556 121.286 35.1623C121.224 35.269 121.184 35.3874 121.17 35.51C121.17 36.02 121.47 36.25 122.72 36.51" fill="#F57F29"/>
<path d="M126.31 35.22C126.31 35.041 126.348 34.8639 126.42 34.7C126.488 34.5396 126.587 34.3937 126.71 34.27C126.834 34.1474 126.979 34.0491 127.14 33.98C127.46 33.851 127.819 33.851 128.14 33.98C128.463 34.1186 128.721 34.3764 128.86 34.7C128.989 35.0209 128.989 35.3792 128.86 35.7C128.79 35.8599 128.692 36.0057 128.57 36.13C128.445 36.2524 128.3 36.3508 128.14 36.42C127.819 36.548 127.461 36.548 127.14 36.42C126.816 36.2814 126.558 36.0236 126.42 35.7C126.346 35.533 126.309 35.3524 126.31 35.17V35.22ZM126.55 35.17C126.55 35.318 126.581 35.4643 126.64 35.6C126.752 35.8659 126.964 36.0776 127.23 36.19C127.366 36.2467 127.512 36.2759 127.66 36.2759C127.807 36.2759 127.953 36.2467 128.09 36.19C128.356 36.0785 128.568 35.8665 128.68 35.6C128.738 35.4641 128.769 35.3179 128.77 35.17C128.769 35.0221 128.738 34.8758 128.68 34.74C128.567 34.4741 128.355 34.2625 128.09 34.15C127.953 34.0934 127.807 34.0642 127.66 34.0642C127.512 34.0642 127.366 34.0934 127.23 34.15C126.964 34.2625 126.752 34.4741 126.64 34.74C126.58 34.8757 126.55 35.022 126.55 35.17ZM127.14 34.39H127.74C127.886 34.3784 128.032 34.4211 128.15 34.51C128.194 34.5541 128.229 34.6073 128.251 34.6659C128.274 34.7246 128.283 34.7874 128.28 34.85C128.284 34.9042 128.277 34.9585 128.26 35.01C128.243 35.0615 128.215 35.1091 128.18 35.15C128.109 35.2179 128.017 35.2601 127.92 35.27L128.32 35.92H128L127.61 35.29H127.4V36H127.12V34.44L127.14 34.39ZM127.42 35.06H127.76H127.88C127.916 35.0471 127.948 35.0225 127.97 34.9901C127.991 34.9576 128.002 34.919 128 34.88C128.002 34.8411 127.991 34.8024 127.97 34.77C127.948 34.7375 127.916 34.713 127.88 34.7H127.76H127.42V35.13V35.06Z" fill="#231F20"/>
</g>
<defs>
<clipPath id="clip0">
<rect width="159.98" height="40.44" fill="white"/>
</clipPath>
</defs>
</svg>
